HIERARCHY
ROOT Hips
{
	OFFSET 0.00000 0.00000 0.00000
	CHANNELS 6 Xposition Yposition Zposition Yrotation Zrotation Xrotation 
	JOINT Lumbar
	{
		OFFSET 0 0 0
		CHANNELS 3 Zrotation Xrotation Yrotation
		JOINT Neck
		{
			OFFSET 0.00 0.2701 0.00
			CHANNELS 3 Zrotation Xrotation Yrotation
			End Site
			{
				OFFSET 0.00 0.1379 0.00
			}
		}
		JOINT RightShoulder
		{
			OFFSET 0.0119 0.2289 0.1181
			CHANNELS 3 Zrotation Xrotation Yrotation
			JOINT RightElbow
			{
				OFFSET 0.00 -0.1475 0.00
				CHANNELS 2 Zrotation Yrotation
				JOINT RightWrist
				{
					OFFSET 0.00 -0.1605 0.00
					CHANNELS 2 Zrotation Xrotation
					End Site
					{
						OFFSET 0.0040 -0.1068 0.0006
					}
				}
			}
		}
		JOINT LeftShoulder
		{
			OFFSET 0.0119 0.2289 -0.1181
			CHANNELS 3 Zrotation Xrotation Yrotation
			JOINT LeftElbow
			{
				OFFSET 0.00 -0.1475 0.00
				CHANNELS 2 Zrotation Yrotation
				JOINT LeftWrist
				{
					OFFSET 0.00 -0.1605 0.00
					CHANNELS 2 Zrotation Xrotation
					End Site
					{
						OFFSET 0.0040 -0.1068 -0.0006
					}
				}
			}
		}
	}
	JOINT RightHip
	{
		OFFSET 0.0316 -0.0424 0.0458
		CHANNELS 3 Zrotation Xrotation Yrotation
		JOINT RightKnee
		{
			OFFSET 0.00 -0.2438 0.00
			CHANNELS 1 Zrotation
			JOINT RightAnkle
			{
				OFFSET 0.00 -0.2449 0.00
				CHANNELS 3 Zrotation Xrotation Yrotation
				End Site
				{
					OFFSET 0.1237 -0.0542 0.0051
				}
			}
		}
	}
	JOINT LeftHip
	{
		OFFSET 0.0316 -0.0424 -0.0458
		CHANNELS 3 Zrotation Xrotation Yrotation
		JOINT LeftKnee
		{
			OFFSET 0.00 -0.2438 0.00
			CHANNELS 1 Zrotation
			JOINT LeftAnkle
			{
				OFFSET 0.00 -0.2449 0.00
				CHANNELS 3 Zrotation Xrotation Yrotation
				End Site
				{
					OFFSET 0.1237 -0.0542 -0.0051
				}
			}
		}
	}
}
MOTION
Frames: 11
Frame Time: 0.02
-0.05787 -0.02083 -0.13234 -0.57534 -17.70792 0.6058 24.19321 8.45269 3.75913 -6.86963 1.30154 -2.11613 0.63055 -12.49986 -7.33132 21.63914 87.00941 -4.40739 1.33524 166.38682 155.76796 87.01013 8.6299 -76.11284 -74.60775 17.11664 56.33538 -19.01708 -11.24333 -38.78741 -11.94376 -2.73539 -3.83278 38.46522 -2.96496 20.48129 -28.52603 -5.90323 2.41713 3.37841
-0.0597 -0.02125 -0.13316 -0.2887 -18.16891 0.8439 23.59391 8.92922 3.71166 -6.75397 1.08259 -2.11628 1.01866 -12.46194 -7.3936 21.75048 86.89745 -4.6758 0.9157 166.38684 155.60346 87.20171 9.56638 -74.76004 -74.88725 17.84177 56.92526 -19.35929 -11.17748 -38.47875 -12.02251 -2.72177 -3.83064 39.16085 -3.29126 20.74726 -28.44461 -5.9146 2.38382 3.36267
-0.06151 -0.02166 -0.13402 -0.06295 -18.65061 1.08902 23.01453 9.39216 3.82656 -6.68126 0.93481 -2.11639 1.33825 -12.42408 -7.39844 21.8652 86.80592 -4.91252 0.51502 166.38686 155.51181 87.14186 10.61283 -72.78543 -74.93609 18.98666 57.62249 -19.66662 -10.9978 -38.24048 -12.13645 -2.70805 -3.83036 39.89209 -3.62061 20.96364 -28.37632 -5.93052 2.36217 3.35241
-0.06329 -0.02207 -0.13486 0.18465 -19.10964 1.32395 22.42735 9.86316 3.87379 -6.59981 0.75678 -2.11652 1.67983 -12.38276 -7.44064 21.9667 86.69802 -5.16221 0.11243 166.38688 155.3929 87.13472 11.59776 -71.18487 -75.01818 19.89126 58.25366 -19.97805 -10.86195 -37.9751 -12.2322 -2.69538 -3.82958 40.5906 -3.9369 21.20715 -28.30894 -5.9437 2.33468 3.3394
-0.06522 -0.02249 -0.13574 0.45593 -19.62619 1.58747 21.83131 10.32858 3.89499 -6.47363 0.56685 -2.11665 2.06077 -12.35862 -7.4236 22.12366 86.62174 -5.41568 -0.31851 166.3869 155.2543 87.15662 12.63574 -69.31108 -75.14775 20.95733 58.95783 -20.33941 -10.76748 -37.68571 -12.33646 -2.67836 -3.82726 41.36171 -4.30083 21.43215 -28.2133 -5.95971 2.30937 3.32743
-0.06684 -0.02288 -0.13652 0.66479 -20.02779 1.7946 21.26185 10.79991 4.0076 -6.45033 0.42006 -2.11677 2.34258 -12.29787 -7.5206 22.16554 86.48521 -5.65481 -0.68637 166.38692 155.17201 87.14243 13.58837 -67.8158 -75.21656 21.80517 59.53596 -20.58922 -10.55538 -37.46472 -12.43167 -2.6705 -3.82866 41.98875 -4.56834 21.68341 -28.17801 -5.97098 2.28231 3.31462
-0.06758 -0.02323 -0.13704 0.70318 -20.10007 1.83 20.73617 11.31058 4.35075 -6.70272 0.37154 -2.11688 2.3748 -12.13417 -7.94796 21.86412 86.15983 -5.85932 -0.87763 166.38692 155.22819 87.14722 14.26989 -67.51222 -75.23577 21.9464 59.73242 -20.52853 -10.06269 -37.41114 -12.49322 -2.68701 -3.83932 42.21227 -4.55041 22.021 -28.32309 -5.967 2.24781 3.29818
-0.068 -0.02355 -0.13747 0.68304 -20.05677 1.81078 20.24137 11.82409 4.77727 -7.05643 0.36489 -2.11698 2.30836 -11.9339 -8.49249 21.45006 85.77584 -6.0511 -1.00705 166.38692 155.33741 87.14755 14.86269 -67.59593 -75.22758 21.86053 59.79933 -20.35839 -9.45183 -37.42521 -12.54457 -2.71292 -3.85378 42.2886 -4.43854 22.3859 -28.52565 -5.95823 2.21117 3.28072
-0.06855 -0.02387 -0.13792 0.69842 -20.07074 1.82622 19.74882 12.32313 5.15416 -7.36262 0.34184 -2.11708 2.28204 -11.75072 -8.98545 21.10273 85.42977 -6.25104 -1.16952 166.38692 155.42147 87.14601 15.50083 -67.4898 -75.22847 21.88628 59.93057 -20.24568 -8.88306 -37.41145 -12.60076 -2.73517 -3.86689 42.4301 -4.38208 22.73762 -28.69058 -5.95232 2.17531 3.26368
-0.06917 -0.02423 -0.13842 0.67481 -20.06606 1.80139 19.18813 12.87668 5.58612 -7.6776 0.31057 -2.11718 2.27266 -11.56421 -9.47327 20.69058 85.03712 -6.44056 -1.31128 166.38692 155.51373 87.14708 16.12125 -67.42241 -75.23003 21.89034 60.04357 -20.10031 -8.35836 -37.38762 -12.65736 -2.75483 -3.87847 42.58045 -4.27303 23.09255 -28.90351 -5.94378 2.14046 3.24696
-0.06958 -0.0245 -0.13881 0.71832 -20.07172 1.84612 18.77653 13.31836 5.92121 -7.99643 0.3049 -2.11727 2.2062 -11.37769 -9.99519 20.38598 84.7269 -6.64821 -1.4807 166.38692 155.59913 87.14671 16.75662 -67.37405 -75.22862 21.8803 60.16112 -19.99617 -7.71664 -37.40015 -12.71018 -2.78213 -3.89411 42.67657 -4.2499 23.44583 -29.03122 -5.93943 2.1031 3.22934
